Coordinates
version=1
nRows=9
nColumns=36
inDegrees=yes

Units are S.I. units (second, meters, Newtons, ...)
If the header above contains a line with 'inDegrees', this indicates whether rotational values are in degrees (yes) or radians (no).

endheader
time	pelvis_tilt	pelvis_list	pelvis_rotation	pelvis_tx	pelvis_ty	pelvis_tz	hip_flexion_r	hip_adduction_r	hip_rotation_r	knee_angle_r	knee_angle_r_beta	ankle_angle_r	subtalar_angle_r	mtp_angle_r	hip_flexion_l	hip_adduction_l	hip_rotation_l	knee_angle_l	knee_angle_l_beta	ankle_angle_l	subtalar_angle_l	mtp_angle_l	lumbar_extension	lumbar_bending	lumbar_rotation	arm_flex_r	arm_add_r	arm_rot_r	elbow_flex_r	pro_sup_r	arm_flex_l	arm_add_l	arm_rot_l	elbow_flex_l	pro_sup_l
      1.10000000	    -12.75702529	      0.01597786	      3.16529745	     -0.60325386	      1.60959288	     -0.59430241	     15.67713815	     -1.14328676	    -13.29106446	      8.91369467	      0.15557332	    -41.09699579	     -2.36323800	     -6.25003930	     16.62594804	     -1.66440351	     -8.34696612	     17.30627366	      0.30205146	    -35.80602936	     -2.77446680	     -6.25003930	     -4.91596618	      2.78291472	      6.84939216	    -44.50932849	    -32.45181814	    -78.43116049	    127.01077553	    113.06064344	     83.03100235	    -44.95575904	     46.65978685	     93.28376005	    105.65306444
      1.11000000	    -12.61820297	     -0.02514454	      3.11721312	     -0.59564122	      1.60950284	     -0.59441527	     16.21559457	     -1.08145667	    -13.12902602	      8.55054237	      0.14923512	    -40.87828332	     -2.45364249	     -6.25732955	     17.12991125	     -1.69482210	     -7.92492845	     17.03008320	      0.29723102	    -35.09333169	     -3.10252355	     -6.25732955	     -5.65211681	      2.94588818	      6.92844324	    -44.97738782	    -32.10275409	    -77.61854179	    124.93538677	    112.94559522	     82.73877982	    -45.05457372	     46.51242823	     92.44912058	    105.62356955
      1.12000000	    -12.50194940	     -0.06365694	      3.05172304	     -0.58805965	      1.60841557	     -0.59433688	     16.76871452	     -1.00398391	    -12.87282239	      8.14073113	      0.14208256	    -40.69854794	     -2.48044550	     -6.26411348	     17.64755303	     -1.72464077	     -7.41001664	     16.74358223	      0.29223064	    -34.19779661	     -3.48400224	     -6.26411348	     -6.32499879	      3.07402627	      7.05065444	    -45.54158953	    -31.77066770	    -76.60081809	    122.78711300	    112.85049673	     82.50283565	    -45.10892634	     46.47272263	     91.42651152	    105.58224685
      1.13000000	    -12.48126421	     -0.08403890	      2.98762177	     -0.58069312	      1.60619525	     -0.59405009	     17.40212034	     -0.93479488	    -12.48898272	      7.63446816	      0.13324661	    -40.66140751	     -2.39434096	     -6.28759908	     18.32777924	     -1.72701555	     -6.68727463	     16.59752594	      0.28968148	    -32.87869573	     -3.85315066	     -6.28759908	     -6.79720299	      3.09869472	      7.23466894	    -46.03472646	    -31.41149493	    -75.22224662	    120.54927444	    112.63104036	     82.60625553	    -44.91560005	     47.01049059	     89.76354605	    105.62601943
      1.14000000	    -12.47837105	     -0.10704440	      2.88928052	     -0.57303994	      1.60293086	     -0.59383426	     18.01709684	     -0.86640209	    -12.19921745	      7.06529641	      0.12331269	    -40.53840542	     -2.29128023	     -6.30723213	     18.99638953	     -1.76587772	     -6.21254153	     16.39432787	      0.28613500	    -31.81060683	     -4.10202522	     -6.30723213	     -7.33116029	      3.17740198	      7.47084814	    -46.97453642	    -31.14835484	    -73.99622385	    118.25292319	    112.44520057	     82.58326360	    -44.99519948	     47.47094804	     88.74443582	    105.70425007
      1.15000000	    -12.51436132	     -0.12535432	      2.85346978	     -0.56514979	      1.59860645	     -0.59367367	     18.66426048	     -0.83864349	    -12.10624942	      6.52071630	      0.11380797	    -40.39705749	     -2.13843062	     -6.33044166	     19.73031544	     -1.79285032	     -5.81420727	     16.24580196	      0.28354273	    -30.69638221	     -4.30064574	     -6.33044166	     -7.76866929	      3.25570768	      7.67110025	    -48.11787627	    -30.87263261	    -72.65424226	    115.96791045	    112.30125038	     82.60586296	    -45.19418307	     48.21406840	     87.83788492	    105.85337472
      1.16000000	    -12.58954788	     -0.06138606	      2.76597435	     -0.55716160	      1.59320008	     -0.59336667	     19.35925701	     -0.88705507	    -12.08387311	      5.98459501	      0.10445089	    -40.19046830	     -1.86168395	     -6.36983530	     20.49626679	     -1.76247738	     -5.60483125	     16.12348797	      0.28140795	    -29.50569695	     -4.42034832	     -6.36983530	     -8.18119791	      3.22430367	      7.92569335	    -49.45692226	    -30.64982507	    -71.21497542	    113.69826506	    112.19289933	     82.86459999	    -45.54040358	     49.32461792	     87.01090159	    106.15772743
      1.17000000	    -12.63234286	      0.10293197	      2.62426241	     -0.54891332	      1.58690039	     -0.59305944	     19.99046029	     -1.02314865	    -12.11669101	      5.43094126	      0.09478781	    -40.03624531	     -1.68638441	     -6.37710093	     21.15932854	     -1.62901704	     -5.50929704	     15.92699318	      0.27797847	    -28.63435751	     -4.74116413	     -6.37710093	     -8.69525121	      3.17186593	      8.27077719	    -51.19364610	    -30.38407304	    -69.82433162	    111.75620093	    112.07308703	     82.62305721	    -46.03584052	     49.73012291	     86.74311915	    106.15879576
      1.18000000	    -12.83022619	      0.26841099	      2.57485893	     -0.54088485	      1.57918350	     -0.59260602	     20.83158648	     -1.19925540	    -12.19361346	      4.99640997	      0.08720380	    -39.85653635	     -1.13887245	     -6.41021275	     22.13433189	     -1.49725039	     -5.37768669	     16.05788747	      0.28026301	    -26.94256562	     -4.70986384	     -6.41021275	     -8.86870435	      2.90050269	      8.39094204	    -52.58140786	    -30.31746928	    -67.57610655	    109.39896362	    112.17079471	     83.59703276	    -46.76653330	     52.16919821	     85.97607539	    106.45251252
